<svg t="1753925029830" class="icon" viewBox="0 0 1024 1024" version="1.1" xmlns="http://www.w3.org/2000/svg" p-id="3141" width="200" height="200"><path d="M843.809619 180.921384l-1.216311 660.456829h-659.240518l1.21631-662.889451 659.240519 2.432622m10.704752-42.570882H169.489278c-17.12809 0-31.139992 14.011902-31.139992 31.139992v685.025094c0 17.123225 14.011902 31.135127 31.139992 31.135126h685.025093c17.123225 0 31.135127-14.011902 31.135127-31.135126V169.490494c0-17.12809-14.011902-31.139992-31.135127-31.139992z m-92.733977 325.971326H552.574916v-199.474991l-96.088563-2.432621 1.216311 203.123923-194.609747 1.216311-0.195826 79.496865H455.270042v213.634067h97.304874l1.216311-213.634067h207.309249l0.679918-81.929487z m-0.679918 18.09749" fill="" p-id="3142"></path></svg>